<?xml version="1.0" encoding="UTF-8"?>
<svg width="186px" height="28px" viewBox="0 0 186 28" version="1.1" xmlns="http://www.w3.org/2000/svg" xmlns:xlink="http://www.w3.org/1999/xlink">
    <title>186*28</title>
    <g id="186*28" stroke="none" stroke-width="1" fill="none" fill-rule="evenodd">
        <rect fill="#000000" x="0" y="0" width="186" height="28"></rect>
        <path d="M36.4870806,10.0533333 C36.8442205,10.0533333 37.1815193,10.1162276 37.4989771,10.2420162 C37.8164348,10.3678047 38.0942103,10.5427294 38.3323036,10.7667903 C38.5703969,10.9908512 38.7608715,11.2561864 38.9037275,11.562796 C39.0465834,11.8694056 39.1180114,12.1996006 39.1180114,12.5533809 L39.1180114,15.8199524 C39.1180114,16.1737328 39.0485675,16.5019623 38.9096798,16.804641 C38.770792,17.1073197 38.5803174,17.3706895 38.3382559,17.5947504 C38.0961944,17.8188112 37.8164348,17.9957014 37.4989771,18.1254208 C37.1815193,18.2551403 36.8442205,18.32 36.4870806,18.32 L28.88,18.32 L28.88,10.0533333 L36.4870806,10.0533333 Z M36.4870806,16.5039277 C36.5981908,16.5039277 36.6934281,16.4803424 36.7727925,16.4331717 C36.852157,16.386001 36.9196167,16.3231067 36.9751718,16.2444888 C37.0227905,16.165871 37.0585045,16.0872531 37.0823138,16.0086353 C37.1061231,15.9300174 37.1180278,15.8671232 37.1180278,15.8199524 L37.1180278,12.5533809 C37.1180278,12.5062102 37.1061231,12.4433159 37.0823138,12.3646981 C37.0585045,12.2860802 37.0227905,12.2074624 36.9751718,12.1288445 C36.9196167,12.0502267 36.852157,11.9873324 36.7727925,11.9401617 C36.6934281,11.892991 36.5981908,11.8694056 36.4870806,11.8694056 L30.8799836,11.8694056 L30.8799836,16.5039277 L36.4870806,16.5039277 Z M40.2555682,10.0533333 L42.2555519,10.0533333 L42.2555519,18.32 L40.2555682,18.32 L40.2555682,10.0533333 Z M43.1907294,12.5769662 C43.1907294,12.2153241 43.2601733,11.8811983 43.399061,11.5745887 C43.5379488,11.2679791 43.7264393,11.0026438 43.9645326,10.778583 C44.2026259,10.5545221 44.4823855,10.377632 44.8038114,10.2479125 C45.1252374,10.1181931 45.4684885,10.0533333 45.8335649,10.0533333 L52.5954143,10.0533333 L52.5954143,11.8694056 L45.8335649,11.8694056 C45.6430903,11.8694056 45.4883296,11.9421271 45.369283,12.0875701 C45.2502364,12.2330132 45.190713,12.3961452 45.190713,12.5769662 C45.190713,12.7577873 45.2522205,12.9189539 45.3752353,13.060466 C45.4982502,13.2019781 45.6510267,13.2727342 45.8335649,13.2727342 L50.7740007,13.2727342 C51.1311406,13.2727342 51.4704235,13.3375939 51.7918495,13.4673134 C52.1132754,13.5970328 52.3950191,13.7758884 52.6370806,14.0038802 C52.8791422,14.2318719 53.0716009,14.4991726 53.2144569,14.8057822 C53.3573128,15.1123918 53.4287408,15.4425868 53.4287408,15.7963671 C53.4287408,16.1501474 53.3573128,16.4823078 53.2144569,16.7928483 C53.0716009,17.1033888 52.8791422,17.3706895 52.6370806,17.5947504 C52.3950191,17.8188112 52.1132754,17.9957014 51.7918495,18.1254208 C51.4704235,18.2551403 51.1311406,18.32 50.7740007,18.32 L44.0121513,18.32 L44.0121513,16.5039277 L50.7740007,16.5039277 C50.9565388,16.5039277 51.1093154,16.4312062 51.2323302,16.2857632 C51.3553451,16.1403202 51.4168525,15.9771881 51.4168525,15.7963671 C51.4168525,15.615546 51.3553451,15.452414 51.2323302,15.306971 C51.1093154,15.161528 50.9565388,15.0888065 50.7740007,15.0888065 L45.8335649,15.0888065 C45.476425,15.0888065 45.137142,15.0239467 44.8157161,14.8942273 C44.4942902,14.7645078 44.2145305,14.5876177 43.9764373,14.3635568 C43.738344,14.139496 43.5478693,13.8741607 43.4050134,13.5675511 C43.2621574,13.2609415 43.1907294,12.9307466 43.1907294,12.5769662 Z M53.8043991,10.0533333 L64.0424106,10.0533333 L64.0424106,11.8694056 L59.9233967,11.8694056 L59.9233967,18.32 L57.923413,18.32 L57.923413,11.8694056 L53.8043991,11.8694056 L53.8043991,10.0533333 Z M72.5489547,10.0533333 C72.9060946,10.0533333 73.2433934,10.1162276 73.5608511,10.2420162 C73.8783089,10.3678047 74.1560844,10.5427294 74.3941777,10.7667903 C74.6322709,10.9908512 74.8227456,11.2561864 74.9656016,11.562796 C75.1084575,11.8694056 75.1798855,12.1996006 75.1798855,12.5533809 L75.1798855,13.4024536 C75.1798855,13.756234 75.1124257,14.082498 74.9775062,14.3812458 C74.8425867,14.6799937 74.6580644,14.9394326 74.4239393,15.1595625 C74.1898143,15.3796925 73.916007,15.5546172 73.6025175,15.6843367 C73.289028,15.8140561 72.9576815,15.8867776 72.608478,15.9025012 L75.3346462,18.32 L72.4418127,18.32 L68.2394661,14.6170994 L68.2394661,14.0864289 L72.5489547,14.0864289 C72.7235564,14.0864289 72.8723647,14.0137074 72.9953796,13.8682644 C73.1183945,13.7228214 73.1799019,13.5675511 73.1799019,13.4024536 L73.1799019,12.5533809 C73.1799019,12.5062102 73.1679972,12.4433159 73.1441879,12.3646981 C73.1203786,12.2860802 73.0846646,12.2074624 73.0370459,12.1288445 C72.9814908,12.0502267 72.914031,11.9873324 72.8346666,11.9401617 C72.7553022,11.892991 72.6600649,11.8694056 72.5489547,11.8694056 L66.9418577,11.8694056 L66.9418577,18.32 L64.9418741,18.32 L64.9418741,10.0533333 L72.5489547,10.0533333 Z M76.2817283,10.0533333 L78.281712,10.0533333 L78.281712,18.32 L76.2817283,18.32 L76.2817283,10.0533333 Z M79.4192688,12.5533809 C79.4192688,12.1996006 79.4906968,11.8694056 79.6335528,11.562796 C79.7764087,11.2561864 79.9668834,10.9908512 80.2049766,10.7667903 C80.4430699,10.5427294 80.7208454,10.3678047 81.0383032,10.2420162 C81.3557609,10.1162276 81.6930597,10.0533333 82.0501996,10.0533333 L88.8358584,10.0533333 L88.8358584,11.8694056 L82.0501996,11.8694056 C81.9390894,11.8694056 81.8438521,11.892991 81.7644877,11.9401617 C81.6851233,11.9873324 81.6176635,12.0502267 81.5621084,12.1288445 C81.5144897,12.2074624 81.4787757,12.2860802 81.4549664,12.3646981 C81.4311571,12.4433159 81.4192524,12.5062102 81.4192524,12.5533809 L81.4192524,15.8199524 C81.4192524,15.9850499 81.4807599,16.1403202 81.6037747,16.2857632 C81.7267896,16.4312062 81.8755979,16.5039277 82.0501996,16.5039277 L88.8358584,16.5039277 L88.8358584,18.32 L82.0501996,18.32 C81.6930597,18.32 81.3557609,18.2551403 81.0383032,18.1254208 C80.7208454,17.9957014 80.4430699,17.8188112 80.2049766,17.5947504 C79.9668834,17.3706895 79.7764087,17.1073197 79.6335528,16.804641 C79.4906968,16.5019623 79.4192688,16.1737328 79.4192688,15.8199524 L79.4192688,12.5533809 Z M89.7353219,10.0533333 L99.9733333,10.0533333 L99.9733333,11.8694056 L95.8543194,11.8694056 L95.8543194,18.32 L93.8543358,18.32 L93.8543358,11.8694056 L89.7353219,11.8694056 L89.7353219,10.0533333 Z M105.76,15.8199524 L105.76,12.5533809 C105.76,12.1996006 105.831641,11.8694056 105.974924,11.562796 C106.118207,11.2561864 106.309251,10.9908512 106.548056,10.7667903 C106.786861,10.5427294 107.065467,10.3678047 107.383874,10.2420162 C107.702281,10.1162276 108.040588,10.0533333 108.398795,10.0533333 L113.377879,10.0533333 C113.736087,10.0533333 114.074394,10.1162276 114.3928,10.2420162 C114.711207,10.3678047 114.989813,10.5427294 115.228618,10.7667903 C115.467423,10.9908512 115.656477,11.2561864 115.79578,11.562796 C115.935083,11.8694056 116.004734,12.1996006 116.004734,12.5533809 L116.004734,15.8199524 C116.004734,16.1737328 115.935083,16.5019623 115.79578,16.804641 C115.656477,17.1073197 115.467423,17.3706895 115.228618,17.5947504 C114.989813,17.8188112 114.711207,17.9957014 114.3928,18.1254208 C114.074394,18.2551403 113.736087,18.32 113.377879,18.32 L108.398795,18.32 C108.040588,18.32 107.702281,18.2551403 107.383874,18.1254208 C107.065467,17.9957014 106.786861,17.8188112 106.548056,17.5947504 C106.309251,17.3706895 106.118207,17.1073197 105.974924,16.804641 C105.831641,16.5019623 105.76,16.1737328 105.76,15.8199524 Z M107.909245,16.2444888 C107.964966,16.3231067 108.032627,16.386001 108.112229,16.4331717 C108.191831,16.4803424 108.287353,16.5039277 108.398795,16.5039277 L113.377879,16.5039277 C113.560963,16.5039277 113.710216,16.4331717 113.825638,16.2916595 C113.941061,16.1501474 113.998772,15.9929117 113.998772,15.8199524 L113.998772,12.5533809 C113.998772,12.3804216 113.941061,12.2231859 113.825638,12.0816738 C113.710216,11.9401617 113.560963,11.8694056 113.377879,11.8694056 L108.398795,11.8694056 C108.287353,11.8694056 108.191831,11.892991 108.112229,11.9401617 C108.032627,11.9873324 107.964966,12.0502267 107.909245,12.1288445 C107.861484,12.2074624 107.825663,12.2860802 107.801783,12.3646981 C107.777902,12.4433159 107.765962,12.5062102 107.765962,12.5533809 L107.765962,15.8199524 C107.765962,15.8671232 107.777902,15.9300174 107.801783,16.0086353 C107.825663,16.0872531 107.861484,16.165871 107.909245,16.2444888 Z M117.145691,18.32 L117.145691,10.0533333 L119.115832,10.0533333 L125.408344,15.7609891 L125.408344,10.0533333 L127.414306,10.0533333 L127.414306,18.32 L125.491925,18.32 L119.151653,12.6123443 L119.151653,18.32 L117.145691,18.32 Z M128.555263,13.2727342 L138,13.2727342 L138,15.0888065 L130.561225,15.0888065 L130.561225,16.5039277 L138,16.5039277 L138,18.32 L128.555263,18.32 L128.555263,13.2727342 Z M128.555263,11.8694056 L128.555263,10.0533333 L138,10.0533333 L138,11.8694056 L128.555263,11.8694056 Z M14.1462857,9 L16.56,10.8365217 L16.56,17.4255319 L14.1145263,19.56 L6,19.56 L6,9 L14.1462857,9 Z M13.6709434,11.64 L8.8890566,11.64 L8.8890566,17.0215385 L13.6709434,17.0215385 L13.6709434,11.64 Z M22.72,9 L22.72,19.56 L20.173486,19.56 L20.173,12.425 L18.32,13.2113257 L18.32,10.3494496 L20.429,9.001 L22.72,9 Z" id="Combined-Shape" fill="#D4FF00" fill-rule="nonzero"></path>
        <g id="Docs" transform="translate(144.84, 9.6)" fill="#E0E5D3" fill-rule="nonzero">
            <path d="M7.584,0 C7.928,0 8.252,0.066 8.556,0.198 C8.86,0.33 9.124,0.508 9.348,0.732 C9.572,0.956 9.75,1.22 9.882,1.524 C10.014,1.828 10.08,2.152 10.08,2.496 L10.08,5.904 C10.08,6.248 10.014,6.572 9.882,6.876 C9.75,7.18 9.572,7.444 9.348,7.668 C9.124,7.892 8.86,8.07 8.556,8.202 C8.252,8.334 7.928,8.4 7.584,8.4 L0,8.4 L0,0 L7.584,0 Z M7.584,6.72 C7.808,6.72 8,6.64 8.16,6.48 C8.32,6.32 8.4,6.128 8.4,5.904 L8.4,2.496 C8.4,2.272 8.32,2.08 8.16,1.92 C8,1.76 7.808,1.68 7.584,1.68 L1.68,1.68 L1.68,6.72 L7.584,6.72 Z" id="Shape"></path>
            <path d="M10.96,4.176 C10.96,3.832 11.026,3.508 11.158,3.204 C11.29,2.9 11.468,2.636 11.692,2.412 C11.916,2.188 12.18,2.01 12.484,1.878 C12.788,1.746 13.112,1.68 13.456,1.68 L16.864,1.68 C17.208,1.68 17.532,1.746 17.836,1.878 C18.14,2.01 18.404,2.188 18.628,2.412 C18.852,2.636 19.03,2.9 19.162,3.204 C19.294,3.508 19.36,3.832 19.36,4.176 L19.36,5.904 C19.36,6.248 19.294,6.572 19.162,6.876 C19.03,7.18 18.852,7.444 18.628,7.668 C18.404,7.892 18.14,8.07 17.836,8.202 C17.532,8.334 17.208,8.4 16.864,8.4 L13.456,8.4 C13.112,8.4 12.788,8.334 12.484,8.202 C12.18,8.07 11.916,7.892 11.692,7.668 C11.468,7.444 11.29,7.18 11.158,6.876 C11.026,6.572 10.96,6.248 10.96,5.904 L10.96,4.176 Z M12.64,5.904 C12.64,6.128 12.72,6.32 12.88,6.48 C13.04,6.64 13.232,6.72 13.456,6.72 L16.864,6.72 C17.088,6.72 17.28,6.64 17.44,6.48 C17.6,6.32 17.68,6.128 17.68,5.904 L17.68,4.176 C17.68,3.952 17.6,3.76 17.44,3.6 C17.28,3.44 17.088,3.36 16.864,3.36 L13.456,3.36 C13.232,3.36 13.04,3.44 12.88,3.6 C12.72,3.76 12.64,3.952 12.64,4.176 L12.64,5.904 Z" id="Shape"></path>
            <path d="M22.34,1.68 L27.8,1.68 L27.8,3.36 L22.34,3.36 C22.228,3.36 22.13,3.402 22.046,3.486 C21.962,3.57 21.92,3.668 21.92,3.78 L21.92,6.3 C21.92,6.412 21.962,6.51 22.046,6.594 C22.13,6.678 22.228,6.72 22.34,6.72 L27.8,6.72 L27.8,8.4 L22.34,8.4 C22.052,8.4 21.78,8.344 21.524,8.232 C21.268,8.12 21.046,7.97 20.858,7.782 C20.67,7.594 20.52,7.372 20.408,7.116 C20.296,6.86 20.24,6.588 20.24,6.3 L20.24,3.78 C20.24,3.492 20.296,3.22 20.408,2.964 C20.52,2.708 20.67,2.484 20.858,2.292 C21.046,2.1 21.268,1.95 21.524,1.842 C21.78,1.734 22.052,1.68 22.34,1.68 Z" id="Path"></path>
            <path d="M28.392,3.78 C28.392,3.492 28.448,3.22 28.56,2.964 C28.672,2.708 28.822,2.484 29.01,2.292 C29.198,2.1 29.42,1.95 29.676,1.842 C29.932,1.734 30.204,1.68 30.492,1.68 L35.952,1.68 L35.952,3.36 L30.492,3.36 C30.38,3.36 30.282,3.402 30.198,3.486 C30.114,3.57 30.072,3.668 30.072,3.78 C30.072,3.892 30.114,3.99 30.198,4.074 C30.282,4.158 30.38,4.2 30.492,4.2 L34.692,4.2 C34.98,4.2 35.252,4.254 35.508,4.362 C35.764,4.47 35.988,4.62 36.18,4.812 C36.372,5.004 36.522,5.228 36.63,5.484 C36.738,5.74 36.792,6.012 36.792,6.3 C36.792,6.588 36.738,6.86 36.63,7.116 C36.522,7.372 36.372,7.594 36.18,7.782 C35.988,7.97 35.764,8.12 35.508,8.232 C35.252,8.344 34.98,8.4 34.692,8.4 L29.232,8.4 L29.232,6.72 L34.692,6.72 C34.812,6.72 34.912,6.678 34.992,6.594 C35.072,6.51 35.112,6.412 35.112,6.3 C35.112,6.188 35.072,6.09 34.992,6.006 C34.912,5.922 34.812,5.88 34.692,5.88 L30.492,5.88 C30.204,5.88 29.932,5.824 29.676,5.712 C29.42,5.6 29.198,5.45 29.01,5.262 C28.822,5.074 28.672,4.852 28.56,4.596 C28.448,4.34 28.392,4.068 28.392,3.78 Z" id="Path"></path>
        </g>
    </g>
</svg>