<?xml version="1.0" encoding="UTF-8"?>
<svg width="186px" height="28px" viewBox="0 0 186 28" version="1.1" xmlns="http://www.w3.org/2000/svg" xmlns:xlink="http://www.w3.org/1999/xlink">
    <title>186*28-d1 docs</title>
    <g id="186*28-d1-docs" stroke="none" stroke-width="1" fill="none" fill-rule="evenodd">
        <g id="Group" fill-rule="nonzero">
            <path d="M21.437594,0 L27.7894737,4.86956522 L27.7894737,22.3404255 L21.3540166,28 L0,28 L0,0 L21.437594,0 Z M20.1866931,7 L7.60278054,7 L7.60278054,21.2692308 L20.1866931,21.2692308 L20.1866931,7 Z M44,0 L44,28 L37.2986473,28 L37.2980526,9.082 L32.4210526,11.1663939 L32.4210526,3.57808597 L37.9720526,0.002 L44,0 Z" id="Combined-Shape" fill="#D4FF00"></path>
            <path d="M75.2610828,5 C75.9986635,5 76.6933617,5.14151259 77.3451772,5.42453776 C77.9969928,5.70756294 78.5630431,6.0892181 79.0433283,6.56950324 C79.5236134,7.04978838 79.9052686,7.61583873 80.1882937,8.26765429 C80.4713189,8.91946984 80.6128315,9.614168 80.6128315,10.3517488 L80.6128315,17.6589442 C80.6128315,18.3965249 80.4713189,19.0912231 80.1882937,19.7430386 C79.9052686,20.3948542 79.5236134,20.9609045 79.0433283,21.4411897 C78.5630431,21.9214748 77.9969928,22.30313 77.3451772,22.5861552 C76.6933617,22.8691803 75.9986635,23.0106929 75.2610828,23.0106929 L59,23.0106929 L59,5 L75.2610828,5 Z M75.2610828,19.4085543 C75.7413679,19.4085543 76.1530409,19.2370239 76.4961017,18.8939631 C76.8391625,18.5509023 77.0106929,18.1392293 77.0106929,17.6589442 L77.0106929,10.3517488 C77.0106929,9.87146361 76.8391625,9.45979063 76.4961017,9.11672981 C76.1530409,8.77366899 75.7413679,8.60213858 75.2610828,8.60213858 L62.6021386,8.60213858 L62.6021386,19.4085543 L75.2610828,19.4085543 Z M82.499666,13.9538873 C82.499666,13.2163066 82.6411786,12.5216084 82.9242038,11.8697929 C83.2072289,11.2179773 83.5888841,10.651927 84.0691692,10.1716418 C84.5494544,9.69135668 85.1155047,9.30970152 85.7673203,9.02667635 C86.4191358,8.74365117 87.113834,8.60213858 87.8514148,8.60213858 L95.1586102,8.60213858 C95.8961909,8.60213858 96.5908891,8.74365117 97.2427046,9.02667635 C97.8945202,9.30970152 98.4605705,9.69135668 98.9408557,10.1716418 C99.4211408,10.651927 99.802796,11.2179773 100.085821,11.8697929 C100.368846,12.5216084 100.510359,13.2163066 100.510359,13.9538873 L100.510359,17.6589442 C100.510359,18.3965249 100.368846,19.0912231 100.085821,19.7430386 C99.802796,20.3948542 99.4211408,20.9609045 98.9408557,21.4411897 C98.4605705,21.9214748 97.8945202,22.30313 97.2427046,22.5861552 C96.5908891,22.8691803 95.8961909,23.0106929 95.1586102,23.0106929 L87.8514148,23.0106929 C87.113834,23.0106929 86.4191358,22.8691803 85.7673203,22.5861552 C85.1155047,22.30313 84.5494544,21.9214748 84.0691692,21.4411897 C83.5888841,20.9609045 83.2072289,20.3948542 82.9242038,19.7430386 C82.6411786,19.0912231 82.499666,18.3965249 82.499666,17.6589442 L82.499666,13.9538873 Z M86.1018046,17.6589442 C86.1018046,18.1392293 86.273335,18.5509023 86.6163958,18.8939631 C86.9594566,19.2370239 87.3711296,19.4085543 87.8514148,19.4085543 L95.1586102,19.4085543 C95.6388953,19.4085543 96.0505683,19.2370239 96.3936291,18.8939631 C96.7366899,18.5509023 96.9082203,18.1392293 96.9082203,17.6589442 L96.9082203,13.9538873 C96.9082203,13.4736022 96.7366899,13.0619292 96.3936291,12.7188684 C96.0505683,12.3758076 95.6388953,12.2042772 95.1586102,12.2042772 L87.8514148,12.2042772 C87.3711296,12.2042772 86.9594566,12.3758076 86.6163958,12.7188684 C86.273335,13.0619292 86.1018046,13.4736022 86.1018046,13.9538873 L86.1018046,17.6589442 Z M106.899867,8.60213858 L118.606817,8.60213858 L118.606817,12.2042772 L106.899867,12.2042772 C106.659724,12.2042772 106.449599,12.2943306 106.269492,12.4744376 C106.089385,12.6545445 105.999332,12.8646692 105.999332,13.1048118 L105.999332,18.5080197 C105.999332,18.7481623 106.089385,18.958287 106.269492,19.1383939 C106.449599,19.3185009 106.659724,19.4085543 106.899867,19.4085543 L118.606817,19.4085543 L118.606817,23.0106929 L106.899867,23.0106929 C106.282357,23.0106929 105.699154,22.8906216 105.150256,22.6504791 C104.601359,22.4103365 104.125362,22.088717 103.722266,21.6856205 C103.319169,21.2825241 102.99755,20.8065272 102.757407,20.2576299 C102.517265,19.7087326 102.397193,19.1255292 102.397193,18.5080197 L102.397193,13.1048118 C102.397193,12.4873023 102.517265,11.904099 102.757407,11.3552016 C102.99755,10.8063043 103.319169,10.3260192 103.722266,9.91434621 C104.125362,9.50267323 104.601359,9.18105371 105.150256,8.94948766 C105.699154,8.71792161 106.282357,8.60213858 106.899867,8.60213858 Z M119.876142,13.1048118 C119.876142,12.4873023 119.996213,11.904099 120.236356,11.3552016 C120.476499,10.8063043 120.798118,10.3260192 121.201214,9.91434621 C121.604311,9.50267323 122.080308,9.18105371 122.629205,8.94948766 C123.178102,8.71792161 123.761306,8.60213858 124.378815,8.60213858 L136.085766,8.60213858 L136.085766,12.2042772 L124.378815,12.2042772 C124.138673,12.2042772 123.928548,12.2943306 123.748441,12.4744376 C123.568334,12.6545445 123.478281,12.8646692 123.478281,13.1048118 C123.478281,13.3449544 123.568334,13.5550791 123.748441,13.7351861 C123.928548,13.915293 124.138673,14.0053465 124.378815,14.0053465 L133.384162,14.0053465 C134.001671,14.0053465 134.584875,14.1211295 135.133772,14.3526955 C135.682669,14.5842616 136.162954,14.9058811 136.574627,15.3175541 C136.9863,15.7292271 137.30792,16.2095122 137.539486,16.7584095 C137.771052,17.3073068 137.886835,17.8905102 137.886835,18.5080197 C137.886835,19.1255292 137.771052,19.7087326 137.539486,20.2576299 C137.30792,20.8065272 136.9863,21.2825241 136.574627,21.6856205 C136.162954,22.088717 135.682669,22.4103365 135.133772,22.6504791 C134.584875,22.8906216 134.001671,23.0106929 133.384162,23.0106929 L121.677211,23.0106929 L121.677211,19.4085543 L133.384162,19.4085543 C133.641457,19.4085543 133.85587,19.3185009 134.027401,19.1383939 C134.198931,18.958287 134.284696,18.7481623 134.284696,18.5080197 C134.284696,18.2678771 134.198931,18.0577524 134.027401,17.8776454 C133.85587,17.6975385 133.641457,17.607485 133.384162,17.607485 L124.378815,17.607485 C123.761306,17.607485 123.178102,17.4874138 122.629205,17.2472712 C122.080308,17.0071286 121.604311,16.6855091 121.201214,16.2824126 C120.798118,15.8793162 120.476499,15.4033193 120.236356,14.854422 C119.996213,14.3055247 119.876142,13.7223213 119.876142,13.1048118 Z" id="Combined-Shape" fill="#E0E5D3"></path>
        </g>
    </g>
</svg>