<?xml version="1.0" encoding="UTF-8"?>
<svg width="186px" height="28px" viewBox="0 0 186 28" version="1.1" xmlns="http://www.w3.org/2000/svg" xmlns:xlink="http://www.w3.org/1999/xlink">
    <title>186*28</title>
    <g id="186*28" stroke="none" stroke-width="1" fill="none" fill-rule="evenodd">
        <g id="Group" transform="translate(0, 9)" fill-rule="nonzero">
            <path d="M32.2229306,1.11330722 C32.6004051,1.11330722 32.9569088,1.17978252 33.2924416,1.31273313 C33.6279745,1.44568374 33.9215658,1.63056818 34.1732155,1.86738645 C34.4248651,2.10420472 34.6261848,2.38464741 34.7771746,2.70871452 C34.9281644,3.03278163 35.0036593,3.38177697 35.0036593,3.75570056 L35.0036593,7.20826167 C35.0036593,7.58218525 34.9302615,7.92910325 34.7834659,8.24901565 C34.6366702,8.56892805 34.4353505,8.84729338 34.1795067,9.08411166 C33.9236629,9.32092993 33.6279745,9.50789172 33.2924416,9.64499703 C32.9569088,9.78210235 32.6004051,9.85065501 32.2229306,9.85065501 L24.1827239,9.85065501 L24.1827239,1.11330722 L32.2229306,1.11330722 Z M32.2229306,7.9311806 C32.3403671,7.9311806 32.4410269,7.90625236 32.5249102,7.85639588 C32.6087934,7.8065394 32.6800941,7.7400641 32.7388124,7.65696997 C32.7891423,7.57387584 32.8268898,7.49078171 32.8520547,7.40768758 C32.8772197,7.32459345 32.8898022,7.25811814 32.8898022,7.20826167 L32.8898022,3.75570056 C32.8898022,3.70584408 32.8772197,3.63936878 32.8520547,3.55627465 C32.8268898,3.47318052 32.7891423,3.39008638 32.7388124,3.30699225 C32.6800941,3.22389812 32.6087934,3.15742282 32.5249102,3.10756634 C32.4410269,3.05770986 32.3403671,3.03278163 32.2229306,3.03278163 L26.296581,3.03278163 L26.296581,7.9311806 L32.2229306,7.9311806 Z M36.2059855,1.11330722 L38.3198427,1.11330722 L38.3198427,9.85065501 L36.2059855,9.85065501 L36.2059855,1.11330722 Z M39.3082666,3.7806288 C39.3082666,3.3983958 39.3816644,3.04524574 39.5284601,2.72117864 C39.6752557,2.39711153 39.8744783,2.11666884 40.126128,1.87985057 C40.3777777,1.6430323 40.673466,1.45607051 41.0131931,1.31896519 C41.3529201,1.18185988 41.715715,1.11330722 42.1015779,1.11330722 L49.2484283,1.11330722 L49.2484283,3.03278163 L42.1015779,3.03278163 C41.9002581,3.03278163 41.7366858,3.1096437 41.610861,3.26336784 C41.4850362,3.41709198 41.4221238,3.5895123 41.4221238,3.7806288 C41.4221238,3.9717453 41.4871333,4.14208826 41.6171523,4.2916577 C41.7471712,4.44122713 41.9086464,4.51601185 42.1015779,4.51601185 L47.3233083,4.51601185 C47.7007828,4.51601185 48.0593836,4.58456451 48.3991106,4.72166982 C48.7388377,4.85877514 49.0366231,5.04781428 49.2924669,5.28878726 C49.5483108,5.52976024 49.7517276,5.81228028 49.9027174,6.13634739 C50.0537072,6.46041449 50.1292021,6.80940984 50.1292021,7.18333343 C50.1292021,7.55725701 50.0537072,7.90832971 49.9027174,8.23655153 C49.7517276,8.56477334 49.5483108,8.84729338 49.2924669,9.08411166 C49.0366231,9.32092993 48.7388377,9.50789172 48.3991106,9.64499703 C48.0593836,9.78210235 47.7007828,9.85065501 47.3233083,9.85065501 L40.1764579,9.85065501 L40.1764579,7.9311806 L47.3233083,7.9311806 C47.5162397,7.9311806 47.6777149,7.85431853 47.8077339,7.70059439 C47.9377529,7.54687025 48.0027624,7.37444993 48.0027624,7.18333343 C48.0027624,6.99221693 47.9377529,6.81979661 47.8077339,6.66607247 C47.6777149,6.51234833 47.5162397,6.43548626 47.3233083,6.43548626 L42.1015779,6.43548626 C41.7241034,6.43548626 41.3655026,6.3669336 41.0257756,6.22982828 C40.6860485,6.09272297 40.3903602,5.90576118 40.1387105,5.6689429 C39.8870608,5.43212463 39.6857411,5.15168194 39.5347513,4.82761484 C39.3837615,4.50354773 39.3082666,4.15455238 39.3082666,3.7806288 Z M50.5262493,1.11330722 L61.3471848,1.11330722 L61.3471848,3.03278163 L56.9936456,3.03278163 L56.9936456,9.85065501 L54.8797885,9.85065501 L54.8797885,3.03278163 L50.5262493,3.03278163 L50.5262493,1.11330722 Z M70.338068,1.11330722 C70.7155425,1.11330722 71.0720461,1.17978252 71.407579,1.31273313 C71.7431119,1.44568374 72.0367032,1.63056818 72.2883528,1.86738645 C72.5400025,2.10420472 72.7413222,2.38464741 72.892312,2.70871452 C73.0433018,3.03278163 73.1187967,3.38177697 73.1187967,3.75570056 L73.1187967,4.65311716 C73.1187967,5.02704075 73.047496,5.37188139 72.9048945,5.68763908 C72.762293,6.00339678 72.5672646,6.27760741 72.3198091,6.51027097 C72.0723536,6.74293454 71.7829564,6.92781898 71.4516177,7.06492429 C71.120279,7.20202961 70.7700666,7.27889168 70.4009804,7.2955105 L73.282369,9.85065501 L70.2248256,9.85065501 L65.7832091,5.93692147 L65.7832091,5.3760361 L70.338068,5.3760361 C70.5226111,5.3760361 70.6798921,5.29917403 70.8099111,5.14544988 C70.9399301,4.99172574 71.0049396,4.82761484 71.0049396,4.65311716 L71.0049396,3.75570056 C71.0049396,3.70584408 70.9923571,3.63936878 70.9671921,3.55627465 C70.9420272,3.47318052 70.9042797,3.39008638 70.8539498,3.30699225 C70.7952315,3.22389812 70.7239308,3.15742282 70.6400476,3.10756634 C70.5561643,3.05770986 70.4555045,3.03278163 70.338068,3.03278163 L64.4117184,3.03278163 L64.4117184,9.85065501 L62.2978613,9.85065501 L62.2978613,1.11330722 L70.338068,1.11330722 Z M74.2833754,1.11330722 L76.3972326,1.11330722 L76.3972326,9.85065501 L74.2833754,9.85065501 L74.2833754,1.11330722 Z M77.5995588,3.75570056 C77.5995588,3.38177697 77.6750537,3.03278163 77.8260435,2.70871452 C77.9770333,2.38464741 78.178353,2.10420472 78.4300027,1.86738645 C78.6816523,1.63056818 78.9752436,1.44568374 79.3107765,1.31273313 C79.6463093,1.17978252 80.002813,1.11330722 80.3802875,1.11330722 L87.5523029,1.11330722 L87.5523029,3.03278163 L80.3802875,3.03278163 C80.262851,3.03278163 80.1621912,3.05770986 80.0783079,3.10756634 C79.9944247,3.15742282 79.923124,3.22389812 79.8644057,3.30699225 C79.8140758,3.39008638 79.7763283,3.47318052 79.7511634,3.55627465 C79.7259984,3.63936878 79.7134159,3.70584408 79.7134159,3.75570056 L79.7134159,7.20826167 C79.7134159,7.38275934 79.7784254,7.54687025 79.9084444,7.70059439 C80.0384634,7.85431853 80.1957444,7.9311806 80.3802875,7.9311806 L87.5523029,7.9311806 L87.5523029,9.85065501 L80.3802875,9.85065501 C80.002813,9.85065501 79.6463093,9.78210235 79.3107765,9.64499703 C78.9752436,9.50789172 78.6816523,9.32092993 78.4300027,9.08411166 C78.178353,8.84729338 77.9770333,8.56892805 77.8260435,8.24901565 C77.6750537,7.92910325 77.5995588,7.58218525 77.5995588,7.20826167 L77.5995588,3.75570056 Z M88.5029794,1.11330722 L99.3239149,1.11330722 L99.3239149,3.03278163 L94.9703757,3.03278163 L94.9703757,9.85065501 L92.8565185,9.85065501 L92.8565185,3.03278163 L88.5029794,3.03278163 L88.5029794,1.11330722 Z M105.440058,7.20826167 L105.440058,3.75570056 C105.440058,3.38177697 105.515779,3.03278163 105.66722,2.70871452 C105.818661,2.38464741 106.020583,2.10420472 106.272985,1.86738645 C106.525386,1.63056818 106.819855,1.44568374 107.156391,1.31273313 C107.492927,1.17978252 107.850496,1.11330722 108.229099,1.11330722 L113.491678,1.11330722 C113.870281,1.11330722 114.227851,1.17978252 114.564386,1.31273313 C114.900922,1.44568374 115.195391,1.63056818 115.447793,1.86738645 C115.700195,2.10420472 115.900013,2.38464741 116.047247,2.70871452 C116.194482,3.03278163 116.268099,3.38177697 116.268099,3.75570056 L116.268099,7.20826167 C116.268099,7.58218525 116.194482,7.92910325 116.047247,8.24901565 C115.900013,8.56892805 115.700195,8.84729338 115.447793,9.08411166 C115.195391,9.32092993 114.900922,9.50789172 114.564386,9.64499703 C114.227851,9.78210235 113.870281,9.85065501 113.491678,9.85065501 L108.229099,9.85065501 C107.850496,9.85065501 107.492927,9.78210235 107.156391,9.64499703 C106.819855,9.50789172 106.525386,9.32092993 106.272985,9.08411166 C106.020583,8.84729338 105.818661,8.56892805 105.66722,8.24901565 C105.515779,7.92910325 105.440058,7.58218525 105.440058,7.20826167 Z M107.711675,7.65696997 C107.770569,7.7400641 107.842083,7.8065394 107.926217,7.85639588 C108.010351,7.90625236 108.111312,7.9311806 108.229099,7.9311806 L113.491678,7.9311806 C113.685186,7.9311806 113.842938,7.85639588 113.964932,7.70682645 C114.086926,7.55725701 114.147923,7.39106875 114.147923,7.20826167 L114.147923,3.75570056 C114.147923,3.57289347 114.086926,3.40670521 113.964932,3.25713578 C113.842938,3.10756634 113.685186,3.03278163 113.491678,3.03278163 L108.229099,3.03278163 C108.111312,3.03278163 108.010351,3.05770986 107.926217,3.10756634 C107.842083,3.15742282 107.770569,3.22389812 107.711675,3.30699225 C107.661195,3.39008638 107.623335,3.47318052 107.598094,3.55627465 C107.572854,3.63936878 107.560234,3.70584408 107.560234,3.75570056 L107.560234,7.20826167 C107.560234,7.25811814 107.572854,7.32459345 107.598094,7.40768758 C107.623335,7.49078171 107.661195,7.57387584 107.711675,7.65696997 Z M117.474019,9.85065501 L117.474019,1.11330722 L119.556335,1.11330722 L126.207124,7.14594107 L126.207124,1.11330722 L128.3273,1.11330722 L128.3273,9.85065501 L126.295465,9.85065501 L119.594195,3.81802116 L119.594195,9.85065501 L117.474019,9.85065501 Z M129.53322,4.51601185 L139.515715,4.51601185 L139.515715,6.43548626 L131.653396,6.43548626 L131.653396,7.9311806 L139.515715,7.9311806 L139.515715,9.85065501 L129.53322,9.85065501 L129.53322,4.51601185 Z M129.53322,3.03278163 L129.53322,1.11330722 L139.515715,1.11330722 L139.515715,3.03278163 L129.53322,3.03278163 Z M8.61011268,0 L11.1612572,1.9410882 L11.1612572,8.90525838 L8.57654499,11.1612572 L0,11.1612572 L0,0 L8.61011268,0 Z M8.10770568,2.79031429 L3.05355149,2.79031429 L3.05355149,8.47826266 L8.10770568,8.47826266 L8.10770568,2.79031429 Z M17.6719905,0 L17.6719905,11.1612572 L14.980485,11.1612572 L14.9804667,3.62 L13.0214667,4.45110693 L13.0214667,1.42628349 L15.2504667,0.001 L17.6719905,0 Z" id="Combined-Shape" fill="#D4FF00"></path>
            <path d="M154.760977,0.634162339 C155.124564,0.634162339 155.467011,0.703920197 155.78832,0.843435911 C156.109629,0.982951626 156.388661,1.17108645 156.625415,1.40784039 C156.862169,1.64459433 157.050303,1.92362576 157.189819,2.24493468 C157.329335,2.5662436 157.399093,2.90869126 157.399093,3.27227767 L157.399093,6.87431976 C157.399093,7.23790617 157.329335,7.58035383 157.189819,7.90166275 C157.050303,8.22297167 156.862169,8.5020031 156.625415,8.73875704 C156.388661,8.97551098 156.109629,9.1636458 155.78832,9.30316152 C155.467011,9.44267723 155.124564,9.51243509 154.760977,9.51243509 L146.745165,9.51243509 L146.745165,0.634162339 L154.760977,0.634162339 Z M154.760977,7.73678054 C154.997731,7.73678054 155.200663,7.65222556 155.369773,7.48311561 C155.538883,7.31400565 155.623438,7.1110737 155.623438,6.87431976 L155.623438,3.27227767 C155.623438,3.03552373 155.538883,2.83259178 155.369773,2.66348183 C155.200663,2.49437187 154.997731,2.40981689 154.760977,2.40981689 L148.52082,2.40981689 L148.52082,7.73678054 L154.760977,7.73678054 Z M158.329197,5.04793222 C158.329197,4.68434581 158.398955,4.34189815 158.538471,4.02058923 C158.677987,3.69928031 158.866122,3.42024888 159.102875,3.18349494 C159.339629,2.946741 159.618661,2.75860618 159.93997,2.61909046 C160.261279,2.47957475 160.603726,2.40981689 160.967313,2.40981689 L164.569355,2.40981689 C164.932941,2.40981689 165.275389,2.47957475 165.596698,2.61909046 C165.918007,2.75860618 166.197038,2.946741 166.433792,3.18349494 C166.670546,3.42024888 166.858681,3.69928031 166.998197,4.02058923 C167.137712,4.34189815 167.20747,4.68434581 167.20747,5.04793222 L167.20747,6.87431976 C167.20747,7.23790617 167.137712,7.58035383 166.998197,7.90166275 C166.858681,8.22297167 166.670546,8.5020031 166.433792,8.73875704 C166.197038,8.97551098 165.918007,9.1636458 165.596698,9.30316152 C165.275389,9.44267723 164.932941,9.51243509 164.569355,9.51243509 L160.967313,9.51243509 C160.603726,9.51243509 160.261279,9.44267723 159.93997,9.30316152 C159.618661,9.1636458 159.339629,8.97551098 159.102875,8.73875704 C158.866122,8.5020031 158.677987,8.22297167 158.538471,7.90166275 C158.398955,7.58035383 158.329197,7.23790617 158.329197,6.87431976 L158.329197,5.04793222 Z M160.104852,6.87431976 C160.104852,7.1110737 160.189407,7.31400565 160.358517,7.48311561 C160.527627,7.65222556 160.730559,7.73678054 160.967313,7.73678054 L164.569355,7.73678054 C164.806109,7.73678054 165.009041,7.65222556 165.178151,7.48311561 C165.347261,7.31400565 165.431816,7.1110737 165.431816,6.87431976 L165.431816,5.04793222 C165.431816,4.81117828 165.347261,4.60824633 165.178151,4.43913638 C165.009041,4.27002642 164.806109,4.18547144 164.569355,4.18547144 L160.967313,4.18547144 C160.730559,4.18547144 160.527627,4.27002642 160.358517,4.43913638 C160.189407,4.60824633 160.104852,4.81117828 160.104852,5.04793222 L160.104852,6.87431976 Z M170.357143,2.40981689 L176.12802,2.40981689 L176.12802,4.18547144 L170.357143,4.18547144 C170.238766,4.18547144 170.135186,4.2298628 170.046404,4.31864553 C169.957621,4.40742826 169.913229,4.51100811 169.913229,4.62938508 L169.913229,7.2928669 C169.913229,7.41124387 169.957621,7.51482372 170.046404,7.60360645 C170.135186,7.69238918 170.238766,7.73678054 170.357143,7.73678054 L176.12802,7.73678054 L176.12802,9.51243509 L170.357143,9.51243509 C170.052745,9.51243509 169.765258,9.45324661 169.494682,9.33486964 C169.224106,9.21649267 168.989466,9.05795208 168.790762,8.85924788 C168.592058,8.66054368 168.433517,8.42590362 168.31514,8.15532769 C168.196763,7.88475175 168.137575,7.59726483 168.137575,7.2928669 L168.137575,4.62938508 C168.137575,4.32498715 168.196763,4.03750023 168.31514,3.7669243 C168.433517,3.49634836 168.592058,3.25959442 168.790762,3.05666248 C168.989466,2.85373053 169.224106,2.69518994 169.494682,2.58104072 C169.765258,2.4668915 170.052745,2.40981689 170.357143,2.40981689 Z M176.753727,4.62938508 C176.753727,4.32498715 176.812916,4.03750023 176.931293,3.7669243 C177.04967,3.49634836 177.20821,3.25959442 177.406914,3.05666248 C177.605619,2.85373053 177.840259,2.69518994 178.110835,2.58104072 C178.381411,2.4668915 178.668898,2.40981689 178.973295,2.40981689 L184.744173,2.40981689 L184.744173,4.18547144 L178.973295,4.18547144 C178.854918,4.18547144 178.751339,4.2298628 178.662556,4.31864553 C178.573773,4.40742826 178.529382,4.51100811 178.529382,4.62938508 C178.529382,4.74776205 178.573773,4.8513419 178.662556,4.94012462 C178.751339,5.02890735 178.854918,5.07329872 178.973295,5.07329872 L183.412432,5.07329872 C183.71683,5.07329872 184.004317,5.13037333 184.274893,5.24452255 C184.545469,5.35867177 184.782222,5.51721235 184.985154,5.7201443 C185.188086,5.92307625 185.346627,6.15983019 185.460776,6.43040612 C185.574925,6.70098205 185.632,6.98846898 185.632,7.2928669 C185.632,7.59726483 185.574925,7.88475175 185.460776,8.15532769 C185.346627,8.42590362 185.188086,8.66054368 184.985154,8.85924788 C184.782222,9.05795208 184.545469,9.21649267 184.274893,9.33486964 C184.004317,9.45324661 183.71683,9.51243509 183.412432,9.51243509 L177.641555,9.51243509 L177.641555,7.73678054 L183.412432,7.73678054 C183.539264,7.73678054 183.644958,7.69238918 183.729513,7.60360645 C183.814068,7.51482372 183.856345,7.41124387 183.856345,7.2928669 C183.856345,7.17448993 183.814068,7.07091008 183.729513,6.98212736 C183.644958,6.89334463 183.539264,6.84895327 183.412432,6.84895327 L178.973295,6.84895327 C178.668898,6.84895327 178.381411,6.78976478 178.110835,6.67138781 C177.840259,6.55301084 177.605619,6.39447026 177.406914,6.19576606 C177.20821,5.99706186 177.04967,5.76242179 176.931293,5.49184586 C176.812916,5.22126993 176.753727,4.933783 176.753727,4.62938508 Z" id="Combined-Shape" fill="#E0E5D3"></path>
        </g>
    </g>
</svg>